<?xml version="1.0" encoding="utf-8"?>
<!-- Generator: Adobe Illustrator 16.0.0, SVG Export Plug-In . SVG Version: 6.00 Build 0)  -->
<!DOCTYPE svg PUBLIC "-//W3C//DTD SVG 1.1//EN" "http://www.w3.org/Graphics/SVG/1.1/DTD/svg11.dtd">
<svg version="1.1" id="Layer_1" xmlns:serif="http://www.serif.com/"
	 xmlns="http://www.w3.org/2000/svg" xmlns:xlink="http://www.w3.org/1999/xlink" x="0px" y="0px" width="640.629px"
	 height="476.221px" viewBox="0 0 640.629 476.221" enable-background="new 0 0 640.629 476.221" xml:space="preserve">
<g>
	<path fill="#231F20" d="M255.917,227.167c-1.775-3.927-5.447-6.839-11.023-6.839c-5.574,0-9.244,2.912-11.019,6.839
		c-1.012,2.408-1.394,4.181-1.521,7.096h25.083C257.311,231.347,256.929,229.575,255.917,227.167z M232.354,245.534
		c0,8.488,5.195,14.697,14.443,14.697c7.22,0,10.766-2.028,14.945-6.209l10.009,9.755c-6.715,6.714-13.172,10.388-25.083,10.388
		c-15.58,0-30.53-7.096-30.53-33.822c0-21.536,11.657-33.696,28.756-33.696c18.37,0,28.755,13.429,28.755,31.543v7.345H232.354
		L232.354,245.534z"/>
	<path fill="#231F20" d="M309.494,273.406c-13.427,0-19.129-9.5-19.129-18.877v-32.683h-6.967v-12.54h6.967v-19.509h16.467v19.509
		h11.657v12.54h-11.657v31.671c0,3.799,1.775,5.955,5.702,5.955h5.955v13.934H309.494z"/>
	<path fill="#231F20" d="M371.307,273.406v-40.284c0-8.741-5.572-11.653-10.766-11.653c-5.195,0-10.641,3.04-10.641,11.653v40.284
		h-16.468V183.21h16.468v30.277c4.434-4.562,10.006-6.841,15.834-6.841c14.439,0,22.041,10.133,22.041,24.067v42.692H371.307
		L371.307,273.406z"/>
	<path fill="#231F20" d="M104.727,271.363H91.954L67.916,206.13h17.153l13.271,40.317l13.148-40.317h17.154L104.727,271.363z"/>
	<path fill="#009FE3" d="M168.548,199.333c-21.511,0-39.012,17.632-39.012,39.306c0,18.141,12.262,33.441,28.874,37.952v-0.068
		c2.346,0.568,4.873,0.825,7.379,0.825c5.314,0,10.533-1.151,13.687-2.91c4.958-2.767,8.305-6.506,9.947-11.117
		c1.759-4.939,1.577-9.809-0.548-14.468c-1.112-2.429-2.87-4.915-5.232-7.395l-4.949-5.18c-4.953-5.173-6.719-7.604-7.35-8.768
		c-0.724-1.281-1.443-3.212-0.766-5.114c0.378-1.066,1.521-3.074,4.922-4.57c1.987-0.874,3.077-1.053,3.515-1.085l1.098-4.286
		c-5.998-1.787-18.414-1.607-24.033,11.543c-1.658,3.871-1.734,8.089-0.227,12.196c1.328,3.625,4.151,7.676,8.634,12.38l4.268,4.49
		c3.103,3.243,4.246,4.896,4.652,5.703c0.783,1.574,0.837,3.253,0.169,5.136c-0.62,1.736-1.521,2.82-3.216,3.861
		c-0.942,0.576-5.978,3.354-12.882,1.361v0.001c-12.775-4.554-21.929-16.727-21.929-31.063c0-18.225,14.774-32.998,33-32.998
		c18.225,0,32.998,14.773,32.998,32.998c0,6.322-1.781,12.227-4.863,17.245l4.523,4.791c4.012-6.176,6.354-13.545,6.354-21.461
		C207.561,216.965,190.059,199.333,168.548,199.333z"/>
	<path fill="#009FE3" d="M430.114,207.963h-2.74l-3.939,12.444l-3.939-12.444h-2.69l5.622,17.104h2.018L430.114,207.963z"/>
	<path fill="#009FE3" d="M442.047,219.686v-1.082c0-3.459-1.896-5.861-5.164-5.861c-3.123,0-5.166,2.282-5.166,6.223
		c0,4.636,2.428,6.246,5.479,6.246c2.139,0,3.314-0.649,4.564-1.898l-1.563-1.465c-0.863,0.865-1.584,1.249-2.955,1.249
		c-1.992,0-3.098-1.322-3.098-3.411H442.047L442.047,219.686z M439.622,217.98h-5.477c0.023-0.744,0.07-1.105,0.311-1.657
		c0.385-0.913,1.275-1.538,2.428-1.538s2.018,0.625,2.402,1.538C439.526,216.875,439.598,217.236,439.622,217.98L439.622,217.98z"/>
	<path fill="#009FE3" d="M454.672,213.896c-0.842-0.841-1.73-1.153-2.908-1.153c-1.367,0-2.617,0.601-3.242,1.466v-1.322h-2.402
		v12.181h2.451v-7.398c0-1.683,1.105-2.739,2.426-2.739c0.842,0,1.273,0.264,1.826,0.816L454.672,213.896z"/>
	<path fill="#009FE3" d="M467.928,218.966c0-1.851-0.143-3.917-1.369-5.142c-0.672-0.672-1.73-1.081-2.955-1.081
		c-1.297,0-2.305,0.313-3.195,1.37v-6.15h-2.449v17.104h2.402v-1.297c0.912,1.105,1.898,1.441,3.219,1.441
		c1.225,0,2.307-0.409,2.979-1.082C467.786,222.905,467.928,220.814,467.928,218.966L467.928,218.966z M465.479,218.966
		c0,2.162-0.313,4.06-2.523,4.06s-2.547-1.897-2.547-4.06s0.336-4.036,2.547-4.036S465.479,216.803,465.479,218.966z"/>
	<path fill="#009FE3" d="M481.254,225.067v-8.145c0-2.762-1.682-4.18-5.021-4.18c-2.018,0-3.219,0.409-4.373,1.754l1.611,1.513
		c0.672-0.864,1.32-1.176,2.666-1.176c1.898,0,2.666,0.744,2.666,2.281v0.865h-3.219c-2.787,0-4.205,1.466-4.205,3.507
		c0,1.034,0.336,1.97,0.961,2.619c0.746,0.744,1.754,1.105,3.268,1.105s2.354-0.361,3.244-1.249v1.104H481.254L481.254,225.067z
		 M478.803,220.671c0,0.864-0.168,1.441-0.527,1.803c-0.65,0.624-1.346,0.695-2.283,0.695c-1.537,0-2.234-0.624-2.234-1.729
		s0.744-1.753,2.186-1.753h2.859V220.671L478.803,220.671z"/>
	<path fill="#009FE3" d="M495.715,225.067v-7.783c0-1.37-0.289-2.523-1.227-3.437c-0.721-0.695-1.752-1.104-3.002-1.104
		c-1.227,0-2.402,0.457-3.244,1.37v-1.227h-2.402v12.181h2.451v-7.424c0-1.874,1.152-2.714,2.523-2.714
		c1.367,0,2.449,0.816,2.449,2.714v7.424H495.715L495.715,225.067z"/>
	<path fill="#009FE3" d="M509.799,225.067v-17.104h-2.449v6.15c-0.891-1.058-1.898-1.37-3.195-1.37
		c-1.225,0-2.283,0.409-2.955,1.081c-1.227,1.225-1.369,3.291-1.369,5.142c0,1.849,0.143,3.939,1.369,5.164
		c0.672,0.673,1.754,1.082,2.979,1.082c1.32,0,2.307-0.336,3.219-1.441v1.297H509.799L509.799,225.067z M507.35,218.966
		c0,2.162-0.313,4.06-2.523,4.06s-2.547-1.897-2.547-4.06s0.336-4.036,2.547-4.036S507.35,216.803,507.35,218.966z"/>
	<path fill="#009FE3" d="M530.772,225.067v-17.104h-2.451v6.15c-0.889-1.058-1.898-1.37-3.195-1.37
		c-1.225,0-2.281,0.409-2.953,1.081c-1.227,1.225-1.371,3.291-1.371,5.142c0,1.849,0.145,3.939,1.371,5.164
		c0.672,0.673,1.752,1.082,2.979,1.082c1.32,0,2.307-0.336,3.219-1.441v1.297H530.772L530.772,225.067z M528.321,218.966
		c0,2.162-0.313,4.06-2.521,4.06c-2.211,0-2.547-1.897-2.547-4.06s0.336-4.036,2.547-4.036
		C528.008,214.929,528.321,216.803,528.321,218.966z"/>
	<path fill="#009FE3" d="M545.219,219.686v-1.082c0-3.459-1.896-5.861-5.164-5.861c-3.123,0-5.166,2.282-5.166,6.223
		c0,4.636,2.428,6.246,5.479,6.246c2.139,0,3.314-0.649,4.564-1.898l-1.561-1.465c-0.865,0.865-1.586,1.249-2.957,1.249
		c-1.992,0-3.098-1.322-3.098-3.411H545.219L545.219,219.686z M542.793,217.98h-5.477c0.023-0.744,0.07-1.105,0.311-1.657
		c0.385-0.913,1.275-1.538,2.428-1.538c1.154,0,2.018,0.625,2.402,1.538C542.698,216.875,542.77,217.236,542.793,217.98
		L542.793,217.98z"/>
	<path fill="#009FE3" d="M557.844,213.896c-0.842-0.841-1.729-1.153-2.908-1.153c-1.367,0-2.617,0.601-3.242,1.466v-1.322h-2.402
		v12.181h2.451v-7.398c0-1.683,1.105-2.739,2.426-2.739c0.842,0,1.273,0.264,1.826,0.816L557.844,213.896z"/>
	<path fill="#009FE3" d="M429.61,244.941c0-1.464-0.457-2.69-1.395-3.507c-0.721-0.648-1.609-1.032-3.195-1.272l-1.945-0.288
		c-0.793-0.121-1.489-0.409-1.922-0.794c-0.457-0.407-0.649-0.961-0.649-1.586c0-1.513,1.105-2.665,3.124-2.665
		c1.441,0,2.666,0.312,3.723,1.32l1.658-1.634c-1.465-1.369-3.051-1.945-5.309-1.945c-3.556,0-5.718,2.041-5.718,5.021
		c0,1.394,0.407,2.475,1.249,3.267c0.744,0.698,1.85,1.179,3.242,1.37l2.018,0.289c1.01,0.144,1.441,0.312,1.875,0.721
		c0.457,0.407,0.672,1.032,0.672,1.777c0,1.657-1.297,2.618-3.531,2.618c-1.754,0-3.122-0.385-4.371-1.634l-1.73,1.706
		c1.635,1.657,3.483,2.259,6.055,2.259C427.038,249.964,429.61,248.09,429.61,244.941L429.61,244.941z"/>
	<path fill="#009FE3" d="M438.534,249.819v-2.091h-1.01c-0.912,0-1.346-0.528-1.346-1.417v-6.582h2.355v-1.874h-2.355v-3.699h-2.449
		v3.699h-1.395v1.874h1.395v6.702c0,1.754,1.057,3.388,3.338,3.388H438.534L438.534,249.819z"/>
	<path fill="#009FE3" d="M452.182,249.819v-12.181h-2.451v7.424c0,1.874-1.152,2.714-2.523,2.714c-1.369,0-2.451-0.816-2.451-2.714
		v-7.424h-2.449v7.783c0,1.37,0.287,2.523,1.227,3.437c0.721,0.696,1.752,1.105,3.002,1.105c1.225,0,2.402-0.458,3.244-1.37v1.226
		H452.182L452.182,249.819z"/>
	<path fill="#009FE3" d="M466.385,249.819v-17.104h-2.451v6.149c-0.891-1.057-1.898-1.37-3.195-1.37
		c-1.225,0-2.281,0.409-2.955,1.082c-1.227,1.225-1.369,3.291-1.369,5.142c0,1.849,0.143,3.939,1.369,5.164
		c0.674,0.673,1.754,1.082,2.979,1.082c1.32,0,2.307-0.337,3.221-1.441v1.297H466.385L466.385,249.819z M463.934,243.718
		c0,2.162-0.313,4.059-2.523,4.059s-2.547-1.896-2.547-4.059s0.336-4.036,2.547-4.036S463.934,241.555,463.934,243.718z"/>
	<path fill="#009FE3" d="M473.504,249.819v-12.181h-2.451v12.181H473.504z M473.577,235.236v-2.595h-2.594v2.595H473.577z"/>
	<path fill="#009FE3" d="M487.891,244.438v-1.082c0-3.46-1.896-5.862-5.164-5.862c-3.123,0-5.166,2.283-5.166,6.224
		c0,4.636,2.428,6.246,5.479,6.246c2.139,0,3.314-0.649,4.564-1.899l-1.561-1.464c-0.865,0.864-1.586,1.249-2.957,1.249
		c-1.992,0-3.098-1.322-3.098-3.411h7.904H487.891z M485.467,242.731h-5.479c0.023-0.744,0.072-1.104,0.313-1.656
		c0.383-0.913,1.273-1.538,2.426-1.538c1.154,0,2.02,0.625,2.402,1.538C485.37,241.627,485.442,241.987,485.467,242.731
		L485.467,242.731z"/>
	<path fill="#009FE3" d="M500.516,238.647c-0.842-0.84-1.729-1.153-2.906-1.153c-1.369,0-2.619,0.602-3.242,1.467v-1.322h-2.402
		v12.181h2.449v-7.399c0-1.682,1.105-2.738,2.426-2.738c0.842,0,1.273,0.264,1.826,0.816L500.516,238.647z"/>
	<path fill="#009FE3" d="M513.086,244.438v-1.082c0-3.46-1.898-5.862-5.166-5.862c-3.123,0-5.164,2.283-5.164,6.224
		c0,4.636,2.426,6.246,5.477,6.246c2.139,0,3.316-0.649,4.564-1.899l-1.563-1.464c-0.863,0.864-1.584,1.249-2.953,1.249
		c-1.994,0-3.1-1.322-3.1-3.411H513.086z M510.659,242.731h-5.477c0.025-0.744,0.072-1.104,0.313-1.656
		c0.385-0.913,1.273-1.538,2.426-1.538s2.018,0.625,2.402,1.538C510.563,241.627,510.635,241.987,510.659,242.731L510.659,242.731z"
		/>
	<path fill="#009FE3" d="M527.032,249.819v-7.783c0-1.37-0.289-2.523-1.227-3.437c-0.721-0.696-1.752-1.105-3.002-1.105
		c-1.227,0-2.402,0.458-3.244,1.37v-1.226h-2.402v12.181h2.451v-7.424c0-1.874,1.152-2.714,2.523-2.714
		c1.367,0,2.449,0.816,2.449,2.714v7.424H527.032L527.032,249.819z"/>
	<path fill="#009FE3" d="M541.116,249.819v-17.104h-2.451v6.149c-0.889-1.057-1.896-1.37-3.193-1.37
		c-1.227,0-2.283,0.409-2.957,1.082c-1.225,1.225-1.367,3.291-1.367,5.142c0,1.849,0.143,3.939,1.367,5.164
		c0.674,0.673,1.756,1.082,2.98,1.082c1.32,0,2.305-0.337,3.219-1.441v1.297H541.116L541.116,249.819z M538.665,243.718
		c0,2.162-0.311,4.059-2.521,4.059s-2.547-1.896-2.547-4.059s0.336-4.036,2.547-4.036S538.665,241.555,538.665,243.718z"/>
	<path fill="#009FE3" d="M555.563,244.438v-1.082c0-3.46-1.896-5.862-5.164-5.862c-3.123,0-5.166,2.283-5.166,6.224
		c0,4.636,2.428,6.246,5.477,6.246c2.139,0,3.316-0.649,4.564-1.899l-1.561-1.464c-0.865,0.864-1.586,1.249-2.955,1.249
		c-1.994,0-3.098-1.322-3.098-3.411H555.563z M553.137,242.731h-5.477c0.023-0.744,0.07-1.104,0.311-1.656
		c0.385-0.913,1.273-1.538,2.428-1.538c1.152,0,2.018,0.625,2.402,1.538C553.042,241.627,553.112,241.987,553.137,242.731
		L553.137,242.731z"/>
	<path fill="#009FE3" d="M569.508,249.819v-7.783c0-1.37-0.289-2.523-1.225-3.437c-0.721-0.696-1.754-1.105-3.004-1.105
		c-1.225,0-2.402,0.458-3.242,1.37v-1.226h-2.402v12.181h2.451v-7.424c0-1.874,1.152-2.714,2.521-2.714s2.449,0.816,2.449,2.714
		v7.424H569.508L569.508,249.819z"/>
	<path fill="#009FE3" d="M427.592,273.113v-8.143c0-2.764-1.684-4.181-5.023-4.181c-2.018,0-3.219,0.408-4.371,1.753l1.609,1.515
		c0.674-0.865,1.321-1.178,2.666-1.178c1.898,0,2.668,0.745,2.668,2.282v0.865h-3.219c-2.787,0-4.205,1.465-4.205,3.508
		c0,1.032,0.336,1.97,0.961,2.617c0.745,0.746,1.754,1.105,3.268,1.105s2.354-0.359,3.242-1.249v1.104h2.402H427.592z
		 M425.141,268.718c0,0.865-0.17,1.441-0.529,1.801c-0.648,0.625-1.346,0.698-2.283,0.698c-1.537,0-2.232-0.625-2.232-1.73
		c0-1.104,0.744-1.754,2.186-1.754h2.859V268.718z"/>
	<path fill="#009FE3" d="M442.051,273.115v-7.784c0-1.37-0.289-2.522-1.225-3.436c-0.721-0.696-1.756-1.105-3.004-1.105
		c-1.225,0-2.402,0.457-3.242,1.37v-1.226h-2.402v12.181h2.449v-7.424c0-1.874,1.154-2.715,2.521-2.715
		c1.371,0,2.451,0.817,2.451,2.715v7.424H442.051L442.051,273.115z"/>
	<path fill="#009FE3" d="M462.903,273.115V256.01h-2.449v6.15c-0.889-1.057-1.898-1.37-3.195-1.37c-1.227,0-2.283,0.409-2.955,1.082
		c-1.225,1.225-1.369,3.29-1.369,5.141c0,1.85,0.145,3.94,1.369,5.165c0.672,0.672,1.754,1.081,2.979,1.081
		c1.322,0,2.307-0.336,3.219-1.441v1.298H462.903L462.903,273.115z M460.454,267.012c0,2.162-0.313,4.06-2.523,4.06
		c-2.209,0-2.545-1.897-2.545-4.06s0.336-4.036,2.545-4.036C460.141,262.976,460.454,264.85,460.454,267.012z"/>
	<path fill="#009FE3" d="M477.35,267.733v-1.081c0-3.46-1.896-5.862-5.164-5.862c-3.123,0-5.166,2.283-5.166,6.223
		c0,4.636,2.428,6.246,5.479,6.246c2.139,0,3.314-0.649,4.564-1.898l-1.561-1.465c-0.865,0.865-1.586,1.25-2.957,1.25
		c-1.992,0-3.098-1.322-3.098-3.412H477.35L477.35,267.733z M474.924,266.027h-5.477c0.023-0.744,0.072-1.105,0.313-1.657
		c0.383-0.913,1.273-1.537,2.426-1.537c1.154,0,2.018,0.624,2.402,1.537C474.829,264.922,474.901,265.283,474.924,266.027
		L474.924,266.027z"/>
	<path fill="#009FE3" d="M489.973,261.943c-0.84-0.84-1.729-1.153-2.904-1.153c-1.371,0-2.621,0.602-3.244,1.466v-1.321h-2.402
		v12.181h2.449v-7.399c0-1.682,1.105-2.739,2.428-2.739c0.84,0,1.271,0.264,1.826,0.817L489.973,261.943z"/>
	<path fill="#009FE3" d="M510.875,273.115v-2.331h-8.336v-5.142h7.111v-2.306h-7.111v-4.997h8.336v-2.33h-10.932v17.105H510.875
		L510.875,273.115z"/>
	<path fill="#009FE3" d="M526.389,258.34v-2.33h-12.012v2.33h4.709v14.775h2.594V258.34H526.389L526.389,258.34z"/>
	<path fill="#009FE3" d="M542.475,273.115V256.01h-2.594v7.304h-6.943v-7.304h-2.594v17.105h2.594v-7.473h6.943v7.473H542.475
		L542.475,273.115z"/>
</g>
</svg>
