<?xml version="1.0" encoding="UTF-8" standalone="no"?>
<!DOCTYPE svg PUBLIC "-//W3C//DTD SVG 1.1//EN" "http://www.w3.org/Graphics/SVG/1.1/DTD/svg11.dtd">
<svg width="100%" height="100%" viewBox="0 0 288 157" version="1.1" xmlns="http://www.w3.org/2000/svg" xmlns:xlink="http://www.w3.org/1999/xlink" xml:space="preserve" xmlns:serif="http://www.serif.com/" style="fill-rule:evenodd;clip-rule:evenodd;stroke-linejoin:round;stroke-miterlimit:1.41421;">
	<g>
		<path d="M159.161,74.039c-1.219,-2.697 -3.741,-4.698 -7.57,-4.698c-3.828,0 -6.351,2.001 -7.569,4.698c-0.696,1.653 -0.957,2.871 -1.044,4.872l17.227,0c-0.087,-2.001 -0.348,-3.219 -1.044,-4.872Zm-16.183,12.615c0,5.83 3.567,10.093 9.918,10.093c4.959,0 7.396,-1.392 10.267,-4.263l6.873,6.699c-4.611,4.611 -9.048,7.135 -17.227,7.135c-10.701,0 -20.968,-4.873 -20.968,-23.23c0,-14.791 8.005,-23.144 19.75,-23.144c12.616,0 19.751,9.223 19.751,21.664l0,5.046l-28.364,0Z" style="fill:#231f20;fill-rule:nonzero;"/>
		<path d="M195.96,105.795c-9.223,0 -13.138,-6.525 -13.138,-12.963l0,-22.448l-4.785,0l0,-8.613l4.785,0l0,-13.399l11.311,0l0,13.399l8.005,0l0,8.613l-8.005,0l0,21.751c0,2.611 1.217,4.09 3.915,4.09l4.09,0l0,9.57l-6.178,0Z" style="fill:#231f20;fill-rule:nonzero;"/>
		<path d="M238.416,105.795l0,-27.667c0,-6.003 -3.829,-8.004 -7.396,-8.004c-3.567,0 -7.308,2.088 -7.308,8.004l0,27.667l-11.311,0l0,-61.948l11.311,0l0,20.795c3.045,-3.133 6.873,-4.698 10.875,-4.698c9.919,0 15.139,6.96 15.139,16.53l0,29.321l-11.31,0Z" style="fill:#231f20;fill-rule:nonzero;"/>
		<path d="M55.32,104.394l-8.771,0l-16.512,-44.805l11.782,0l9.116,27.692l9.029,-27.692l11.782,0l-16.426,44.805Z" style="fill:#231f20;fill-rule:nonzero;"/>
		<path d="M99.155,54.921c-14.775,0 -26.795,12.11 -26.795,26.996c0,12.459 8.423,22.969 19.831,26.066l0,-0.047c1.611,0.391 3.348,0.567 5.07,0.567c3.651,0 7.234,-0.79 9.4,-1.999c3.405,-1.899 5.703,-4.468 6.831,-7.635c1.209,-3.394 1.082,-6.737 -0.377,-9.937c-0.763,-1.668 -1.971,-3.376 -3.592,-5.079l-3.399,-3.556c-3.402,-3.553 -4.616,-5.223 -5.048,-6.022c-0.497,-0.881 -0.992,-2.206 -0.526,-3.515c0.26,-0.731 1.045,-2.109 3.381,-3.137c1.364,-0.6 2.113,-0.723 2.413,-0.746l0.755,-2.944c-4.12,-1.227 -12.647,-1.104 -16.508,7.929c-1.137,2.658 -1.191,5.555 -0.155,8.376c0.912,2.49 2.852,5.272 5.929,8.503l2.931,3.084c2.133,2.227 2.917,3.363 3.196,3.917c0.538,1.081 0.576,2.234 0.116,3.526c-0.425,1.194 -1.045,1.938 -2.21,2.653c-0.646,0.396 -4.104,2.304 -8.847,0.935l-0.001,0.001c-8.772,-3.127 -15.06,-11.488 -15.06,-21.334c0,-12.517 10.147,-22.665 22.665,-22.665c12.517,0 22.665,10.148 22.665,22.665c0,4.341 -1.223,8.397 -3.34,11.843l3.106,3.291c2.755,-4.241 4.364,-9.304 4.364,-14.74c0,-14.886 -12.02,-26.996 -26.795,-26.996Z" style="fill:#009fe3;fill-rule:nonzero;"/>
	</g>
</svg>
